<svg width="914" height="400" fill="none" xmlns="http://www.w3.org/2000/svg"><path fill="#fff" d="M0 0h914v400H0z"/><path d="m399.474 209.264 1.288-9.66 1.512-1.12 8.232 1.316-.448-6.272 2.66-.168.98 14.728-1.176 1.4-11.62 1.26-1.428-1.484Zm2.828-1.316 8.68-.924-.308-4.536-7.476-1.204-.896 6.664Zm15.271 1.372-1.064-1.484 1.344-9.968 1.176-1.12 8.204-.672 1.288.7 2.38 4.704-.924 1.876-8.708 1.82-.56-2.548 7.028-1.512-1.176-2.324-6.272.476-1.008 7.7 9.632 1.792-.504 2.576-10.836-2.016Zm22.239-1.764 5.488 1.568-.7 2.52-6.58-1.848-.952-1.4.7-7.532-5.516.392-.224-2.66 5.992-.42.28-2.94 2.632.252-.224 2.52 6.299-.448.169 2.604-6.72.504-.644 6.888Zm20.092-9.268 1.624 1.148.98 10.976-2.632.252-.84-9.492-5.796 1.4-1.204 8.26-2.632-.364 2.912-19.46 2.576.364-1.232 8.372 6.244-1.456Zm6.478 11.032-1.064-1.484 1.344-9.968 1.176-1.12 8.204-.672 1.288.7 2.38 4.704-.924 1.876-8.708 1.82-.56-2.548 7.028-1.512-1.176-2.324-6.272.476-1.008 7.7 9.632 1.792-.504 2.576-10.836-2.016Zm15.014.42 1.12-11.676 1.652-1.148 6.104 1.652 5.908-1.652 1.68 1.232.588 11.648-2.632.14-.532-9.996-3.836 1.036.056 8.848-2.604.056-.084-8.932-3.808-1.064-.98 10.08-2.632-.224Zm20.916-.42-1.064-1.484 1.344-9.968 1.176-1.12 8.204-.672 1.288.7 2.38 4.704-.924 1.876-8.708 1.82-.56-2.548 7.028-1.512-1.176-2.324-6.272.476-1.008 7.7 9.632 1.792-.504 2.576-10.836-2.016Z" fill="#333"/></svg>